<svg width="1600" height="780" viewBox="0 0 1600 780" xmlns="http://www.w3.org/2000/svg">
<defs><linearGradient id="g" x1="0" x2="1" y1="0" y2="1"><stop stop-color="#07162E"/><stop offset=".55" stop-color="#0A2C54"/><stop offset="1" stop-color="#07162E"/></linearGradient><radialGradient id="sun" cx="70%" cy="35%" r="35%"><stop stop-color="#FFCE6B" stop-opacity=".9"/><stop offset="1" stop-color="#FFCE6B" stop-opacity="0"/></radialGradient></defs>
<rect width="1600" height="780" fill="url(#g)"/><rect width="1600" height="780" fill="url(#sun)"/>
<g opacity=".35"><rect y="0" width="1600" height="780" fill="#000"/></g>
<g transform="translate(600 200)" fill="#163E68" opacity=".9"><rect x="0" y="190" width="90" height="250"/><rect x="110" y="90" width="120" height="350"/><rect x="260" y="160" width="80" height="280"/><rect x="370" y="20" width="140" height="420"/><rect x="545" y="120" width="120" height="320"/><rect x="700" y="70" width="100" height="370"/><rect x="840" y="180" width="110" height="260"/></g>
<g opacity=".25" stroke="#8AB1DD"><path d="M0 645h1600"/><path d="M0 700h1600"/><path d="M80 600h1300"/></g>
<g transform="translate(1120 210)"><circle cx="70" cy="36" r="24" fill="#101828"/><rect x="52" y="58" width="38" height="130" rx="15" fill="#101828"/><path d="M38 88c-35 52-45 110-42 165h38c1-49 10-91 28-128" fill="#111827"/><path d="M100 88c35 52 45 110 42 165h-38c-1-49-10-91-28-128" fill="#111827"/><rect x="33" y="183" width="34" height="145" rx="12" fill="#0B1020"/><rect x="75" y="183" width="34" height="145" rx="12" fill="#0B1020"/></g>
<g transform="translate(1250 118)" stroke="#0B1020" stroke-width="10" stroke-linecap="round"><path d="M80 55h150M155 10v90"/><circle cx="80" cy="55" r="38" fill="none"/><circle cx="230" cy="55" r="38" fill="none"/><rect x="132" y="42" width="46" height="28" rx="10" fill="#0B1020"/><path d="M120 70l-40 55M190 70l40 55"/></g>
</svg>
